<?xml version="1.0" encoding="UTF-8" standalone="no"?>
<svg
   width="91.44mm"
   height="128.5mm"
   viewBox="0 0 91.44 128.5"
   version="1.1"
   id="svg22"
   xmlns="http://www.w3.org/2000/svg"
   xmlns:svg="http://www.w3.org/2000/svg">
  <defs
     id="defs22" />
  <!-- Panel background -->
  <rect
     width="91.44"
     height="128.5"
     fill="#1a1a2e"
     id="rect1" />
  <rect
     x="0.3"
     y="0.3"
     width="90.84"
     height="127.9"
     rx="0.5"
     fill="none"
     stroke="#2a2a4e"
     stroke-width="0.3"
     id="rect2" />
  <!-- Title -->
  <path
     d="m 31.739491,6.8835 v 0.242 q 0,0.1815 -0.0715,0.3465 -0.066,0.1595 -0.187,0.286 -0.121,0.1265 -0.286,0.2035 -0.1595,0.0715 -0.3465,0.0715 -0.1595,0 -0.3245,-0.044 -0.165,-0.044 -0.297,-0.154 -0.132,-0.11 -0.22,-0.2805 -0.0825,-0.176 -0.0825,-0.4455 V 4.953 q 0,-0.1925 0.066,-0.3575 0.066,-0.165 0.187,-0.286 0.121,-0.121 0.286,-0.187 0.1705,-0.0715 0.374,-0.0715 0.396,0 0.6435,0.2585 0.121,0.1265 0.187,0.3025 0.0715,0.1705 0.0715,0.374 v 0.22 h -0.561 V 5.019 q 0,-0.165 -0.0935,-0.286 -0.0935,-0.121 -0.253,-0.121 -0.209,0 -0.2805,0.132 -0.066,0.1265 -0.066,0.3245 v 2.002 q 0,0.1705 0.0715,0.286 0.077,0.1155 0.2695,0.1155 0.055,0 0.1155,-0.0165 0.066,-0.022 0.121,-0.066 0.0495,-0.044 0.0825,-0.121 0.033,-0.077 0.033,-0.1925 V 6.8835 Z M 33.662989,5.008 q 0,-0.2365 0.0825,-0.418 0.0825,-0.1815 0.22,-0.3025 0.132,-0.1155 0.297,-0.176 0.1705,-0.0605 0.341,-0.0605 0.1705,0 0.3355,0.0605 0.1705,0.0605 0.308,0.176 0.132,0.121 0.2145,0.3025 0.0825,0.1815 0.0825,0.418 v 2.068 q 0,0.2475 -0.0825,0.4235 -0.0825,0.176 -0.2145,0.2915 -0.1375,0.121 -0.308,0.1815 -0.165,0.0605 -0.3355,0.0605 -0.1705,0 -0.341,-0.0605 -0.165,-0.0605 -0.297,-0.1815 -0.1375,-0.1155 -0.22,-0.2915 -0.0825,-0.176 -0.0825,-0.4235 z m 0.561,2.068 q 0,0.2035 0.11,0.3025 0.1155,0.0935 0.2695,0.0935 0.154,0 0.264,-0.0935 0.1155,-0.099 0.1155,-0.3025 V 5.008 q 0,-0.2035 -0.1155,-0.297 -0.11,-0.099 -0.264,-0.099 -0.154,0 -0.2695,0.099 -0.11,0.0935 -0.11,0.297 z m 3.876003,-2.464 v 1.221 h 0.319 q 0.1485,0 0.2365,-0.0385 0.088,-0.044 0.1375,-0.121 0.044,-0.077 0.0605,-0.187 0.0165,-0.1155 0.0165,-0.264 0,-0.1485 -0.0165,-0.2585 -0.0165,-0.1155 -0.066,-0.198 -0.1045,-0.154 -0.396,-0.154 z M 37.538992,8 V 4.084 h 0.902 q 0.99,0 0.99,1.1495 0,0.3465 -0.11,0.5885 -0.1045,0.242 -0.374,0.3905 L 39.551992,8 h -0.594 l -0.5225,-1.672 h -0.3355 V 8 Z m 4.404003,-3.388 v 1.221 h 0.319 q 0.1485,0 0.2365,-0.0385 0.088,-0.044 0.1375,-0.121 0.044,-0.077 0.0605,-0.187 0.0165,-0.1155 0.0165,-0.264 0,-0.1485 -0.0165,-0.2585 -0.0165,-0.1155 -0.066,-0.198 -0.1045,-0.154 -0.396,-0.154 z M 41.381995,8 V 4.084 h 0.902 q 0.99,0 0.99,1.1495 0,0.3465 -0.11,0.5885 -0.1045,0.242 -0.374,0.3905 L 43.394995,8 h -0.594 l -0.5225,-1.672 h -0.3355 V 8 Z M 47.039999,4.084 V 7.12 q 0,0.1925 -0.0715,0.3575 -0.066,0.1595 -0.1925,0.286 -0.1265,0.1265 -0.2915,0.198 -0.165,0.0715 -0.352,0.0715 -0.187,0 -0.352,-0.0715 -0.1595,-0.0715 -0.286,-0.198 -0.1265,-0.1265 -0.198,-0.286 -0.0715,-0.165 -0.0715,-0.3575 V 4.084 h 0.561 v 2.981 q 0,0.209 0.099,0.308 0.099,0.099 0.2475,0.099 0.1485,0 0.2475,-0.099 0.099,-0.099 0.099,-0.308 V 4.084 Z M 53.175,8 V 4.612 H 52.526 V 4.084 h 1.859 V 4.612 H 53.736 V 8 Z m 2.957504,0 V 4.084 h 1.672 v 0.528 h -1.111 v 1.1495 h 0.968 v 0.528 h -0.968 V 7.439 h 1.111 V 8 Z m 4.096005,-3.388 v 1.221 h 0.319 q 0.1485,0 0.2365,-0.0385 0.088,-0.044 0.1375,-0.121 0.044,-0.077 0.0605,-0.187 0.0165,-0.1155 0.0165,-0.264 0,-0.1485 -0.0165,-0.2585 -0.0165,-0.1155 -0.066,-0.198 -0.1045,-0.154 -0.396,-0.154 z M 59.667509,8 V 4.084 h 0.902 q 0.99,0 0.99,1.1495 0,0.3465 -0.11,0.5885 -0.1045,0.242 -0.374,0.3905 L 61.680509,8 h -0.594 l -0.5225,-1.672 h -0.3355 V 8 Z"
     id="text2"
     style="font-weight:bold;font-size:5.5px;font-family:'DIN Condensed';letter-spacing:1.5;text-anchor:middle;fill:#7070b0"
     aria-label="CORRUPTER" />
  <!-- Reversed P -->
  <path
     d="M 49.068003,8 V 4.084 h 0.8415 q 0.231,0 0.407,0.0605 0.176,0.0605 0.319,0.2145 0.143,0.154 0.198,0.363 0.055,0.2035 0.055,0.5555 0,0.264 -0.033,0.4455 -0.0275,0.1815 -0.1265,0.341 -0.1155,0.1925 -0.308,0.3025 -0.1925,0.1045 -0.506,0.1045 h -0.286 V 8 Z m 0.561,-3.388 v 1.331 h 0.2695 q 0.1705,0 0.264,-0.0495 0.0935,-0.0495 0.1375,-0.1375 0.044,-0.0825 0.0495,-0.2035 0.011,-0.121 0.011,-0.2695 0,-0.1375 -0.0055,-0.2585 -0.0055,-0.1265 -0.0495,-0.22 -0.044,-0.0935 -0.132,-0.143 -0.088,-0.0495 -0.253,-0.0495 z"
     transform="translate(99.456, 0) scale(-1, 1)"
     style="font-weight:bold;font-size:5.5px;font-family:'DIN Condensed';letter-spacing:1.5;text-anchor:middle;fill:#7070b0" />
  <!-- Accent line under title -->
  <line
     x1="8"
     y1="10"
     x2="83.44"
     y2="10"
     stroke="#3535a0"
     stroke-width="0.25"
     id="line2" />
  <!-- Audio I/O labels (above ports at y=17) -->
  <path
     d="m 8.8979976,13 v -1.424 h 0.204 V 13 Z m 0.394001,0 v -1.424 h 0.196 l 0.308,0.858 h 0.004 V 11.576 H 10.003999 V 13 H 9.8119986 l -0.312,-0.856 h -0.004 V 13 Z m 1.2680024,0 v -1.424 h 0.204 v 1.22 h 0.404 V 13 Z"
     id="text3"
     transform="translate(0, -0.25)"
     style="font-weight:bold;font-size:2px;font-family:'DIN Condensed';text-anchor:middle;fill:#505090"
     aria-label="IN L" />
  <path
     d="m 18.841998,13 v -1.424 h 0.204 V 13 Z m 0.394001,0 v -1.424 h 0.196 l 0.308,0.858 h 0.004 v -0.858 h 0.204 V 13 h -0.192 l -0.312,-0.856 h -0.004 V 13 Z m 1.472002,-1.232 v 0.444 h 0.116 q 0.054,0 0.086,-0.014 0.032,-0.016 0.05,-0.044 0.016,-0.028 0.022,-0.068 0.006,-0.042 0.006,-0.096 0,-0.054 -0.006,-0.094 -0.006,-0.042 -0.024,-0.072 -0.038,-0.056 -0.144,-0.056 z m -0.204,1.232 v -1.424 h 0.328 q 0.36,0 0.36,0.418 0,0.126 -0.04,0.214 -0.038,0.088 -0.136,0.142 l 0.22,0.65 h -0.216 l -0.19,-0.608 h -0.122 V 13 Z"
     id="text4"
     transform="translate(0, -0.25)"
     style="font-weight:bold;font-size:2px;font-family:'DIN Condensed';text-anchor:middle;fill:#505090"
     aria-label="IN R" />
  <path
     d="m 69.783999,11.912 q 0,-0.086 0.03,-0.152 0.03,-0.066 0.08,-0.11 0.048,-0.042 0.108,-0.064 0.062,-0.022 0.124,-0.022 0.062,0 0.122,0.022 0.062,0.022 0.112,0.064 0.048,0.044 0.078,0.11 0.03,0.066 0.03,0.152 v 0.752 q 0,0.09 -0.03,0.154 -0.03,0.064 -0.078,0.106 -0.05,0.044 -0.112,0.066 -0.06,0.022 -0.122,0.022 -0.062,0 -0.124,-0.022 -0.06,-0.022 -0.108,-0.066 -0.05,-0.042 -0.08,-0.106 -0.03,-0.064 -0.03,-0.154 z m 0.204,0.752 q 0,0.074 0.04,0.11 0.042,0.034 0.098,0.034 0.056,0 0.096,-0.034 0.042,-0.036 0.042,-0.11 v -0.752 q 0,-0.074 -0.042,-0.108 -0.04,-0.036 -0.096,-0.036 -0.056,0 -0.098,0.036 -0.04,0.034 -0.04,0.108 z M 71.308,11.576 v 1.104 q 0,0.07 -0.026,0.13 -0.024,0.058 -0.07,0.104 -0.046,0.046 -0.106,0.072 -0.06,0.026 -0.128,0.026 -0.068,0 -0.128,-0.026 Q 70.792,12.96 70.746,12.914 70.7,12.868 70.674,12.81 70.648,12.75 70.648,12.68 v -1.104 h 0.204 v 1.084 q 0,0.076 0.036,0.112 0.036,0.036 0.09,0.036 0.054,0 0.09,-0.036 0.036,-0.036 0.036,-0.112 V 11.576 Z M 71.634001,13 v -1.232 h -0.236 v -0.192 h 0.676 v 0.192 h -0.236 V 13 Z m 0.902003,0 v -1.424 h 0.204 v 1.22 h 0.404 V 13 Z"
     id="text5"
     transform="translate(0, -0.25)"
     style="font-weight:bold;font-size:2px;font-family:'DIN Condensed';text-anchor:middle;fill:#505090"
     aria-label="OUT L" />
  <path
     d="m 79.727999,11.912 q 0,-0.086 0.03,-0.152 0.03,-0.066 0.08,-0.11 0.048,-0.042 0.108,-0.064 0.062,-0.022 0.124,-0.022 0.062,0 0.122,0.022 0.062,0.022 0.112,0.064 0.048,0.044 0.078,0.11 0.03,0.066 0.03,0.152 v 0.752 q 0,0.09 -0.03,0.154 -0.03,0.064 -0.078,0.106 -0.05,0.044 -0.112,0.066 -0.06,0.022 -0.122,0.022 -0.062,0 -0.124,-0.022 -0.06,-0.022 -0.108,-0.066 -0.05,-0.042 -0.08,-0.106 -0.03,-0.064 -0.03,-0.154 z m 0.204,0.752 q 0,0.074 0.04,0.11 0.042,0.034 0.098,0.034 0.056,0 0.096,-0.034 0.042,-0.036 0.042,-0.11 v -0.752 q 0,-0.074 -0.042,-0.108 -0.04,-0.036 -0.096,-0.036 -0.056,0 -0.098,0.036 -0.04,0.034 -0.04,0.108 z M 81.252,11.576 v 1.104 q 0,0.07 -0.026,0.13 -0.024,0.058 -0.07,0.104 -0.046,0.046 -0.106,0.072 -0.06,0.026 -0.128,0.026 -0.068,0 -0.128,-0.026 Q 80.736,12.96 80.69,12.914 80.644,12.868 80.618,12.81 80.592,12.75 80.592,12.68 v -1.104 h 0.204 v 1.084 q 0,0.076 0.036,0.112 0.036,0.036 0.09,0.036 0.054,0 0.09,-0.036 0.036,-0.036 0.036,-0.112 V 11.576 Z M 81.578001,13 v -1.232 h -0.236 v -0.192 h 0.676 v 0.192 h -0.236 V 13 Z m 1.106004,-1.232 v 0.444 h 0.116 q 0.054,0 0.086,-0.014 0.032,-0.016 0.05,-0.044 0.016,-0.028 0.022,-0.068 0.006,-0.042 0.006,-0.096 0,-0.054 -0.006,-0.094 -0.006,-0.042 -0.024,-0.072 -0.038,-0.056 -0.144,-0.056 z m -0.204,1.232 v -1.424 h 0.328 q 0.36,0 0.36,0.418 0,0.126 -0.04,0.214 -0.038,0.088 -0.136,0.142 l 0.22,0.65 h -0.216 l -0.19,-0.608 h -0.122 V 13 Z"
     id="text6"
     transform="translate(0, -0.25)"
     style="font-weight:bold;font-size:2px;font-family:'DIN Condensed';text-anchor:middle;fill:#505090"
     aria-label="OUT R" />
  <!-- Row 1 knob labels (knobs at y=36) -->
  <path
     d="m 23.459998,23.5 v -1.54 h -0.295 v -0.24 h 0.845 v 0.24 h -0.295 v 1.54 z m 0.670002,0 v -1.78 h 0.255 v 1.78 z m 0.502501,0 v -1.78 h 0.245 l 0.3275,0.9425 h 0.005 l 0.325,-0.9425 h 0.2475 v 1.78 h -0.255 v -1.0825 h -0.005 l -0.2525,0.765 h -0.1275 l -0.25,-0.765 h -0.005 V 23.5 Z m 1.389999,0 v -1.78 h 0.76 v 0.24 h -0.505 v 0.5225 h 0.44 v 0.24 h -0.44 v 0.5225 h 0.505 V 23.5 Z"
     id="text7"
     transform="translate(0, 4.5)"
     style="font-weight:bold;font-size:2.5px;font-family:'DIN Condensed';text-anchor:middle;fill:#6060a0"
     aria-label="TIME" />
  <path
     d="m 42.766249,21.96 v 0.555 h 0.145 q 0.0675,0 0.1075,-0.0175 0.04,-0.02 0.0625,-0.055 0.02,-0.035 0.0275,-0.085 0.0075,-0.0525 0.0075,-0.12 0,-0.0675 -0.0075,-0.1175 -0.0075,-0.0525 -0.03,-0.09 -0.0475,-0.07 -0.18,-0.07 z m -0.255,1.54 v -1.78 h 0.41 q 0.45,0 0.45,0.5225 0,0.1575 -0.05,0.2675 -0.0475,0.11 -0.17,0.1775 l 0.275,0.8125 h -0.27 l -0.2375,-0.76 h -0.1525 v 0.76 z m 1.065001,0 v -1.78 h 0.76 v 0.24 h -0.505 v 0.5225 h 0.44 v 0.24 h -0.44 v 0.5225 h 0.505 V 23.5 Z m 0.925002,0 v -1.78 h 0.3825 q 0.105,0 0.185,0.0275 0.08,0.0275 0.145,0.0975 0.065,0.07 0.09,0.165 0.025,0.0925 0.025,0.2525 0,0.12 -0.015,0.2025 -0.0125,0.0825 -0.0575,0.155 -0.0525,0.0875 -0.14,0.1375 -0.0875,0.0475 -0.23,0.0475 h -0.13 V 23.5 Z m 0.255,-1.54 v 0.605 h 0.1225 q 0.0775,0 0.12,-0.0225 0.0425,-0.0225 0.0625,-0.0625 0.02,-0.0375 0.0225,-0.0925 0.005,-0.055 0.005,-0.1225 0,-0.0625 -0.0025,-0.1175 -0.0025,-0.0575 -0.0225,-0.1 -0.02,-0.0425 -0.06,-0.065 -0.04,-0.0225 -0.115,-0.0225 z m 0.762499,1.54 v -1.78 h 0.76 v 0.24 h -0.505 v 0.5225 h 0.44 v 0.24 h -0.44 v 0.5225 h 0.505 V 23.5 Z m 1.440002,-0.6225 -0.125,-0.645 h -0.005 l -0.125,0.645 z m -0.63,0.6225 0.3975,-1.78 h 0.2125 l 0.3975,1.78 h -0.255 l -0.075,-0.3825 h -0.3475 l -0.075,0.3825 z m 1.162499,0 v -1.54 h -0.295 v -0.24 h 0.845 v 0.24 h -0.295 v 1.54 z m 1.487501,-1.2675 h -0.255 V 22.175 q 0,-0.0875 -0.0425,-0.15 -0.04,-0.065 -0.1375,-0.065 -0.0525,0 -0.085,0.02 -0.0325,0.02 -0.0525,0.05 -0.02,0.0325 -0.0275,0.075 -0.0075,0.04 -0.0075,0.085 0,0.0525 0.0025,0.0875 0.005,0.035 0.02,0.0625 0.015,0.0275 0.0425,0.0475 0.03,0.02 0.08,0.04 l 0.195,0.0775 q 0.085,0.0325 0.1375,0.0775 0.0525,0.0425 0.0825,0.1 0.0275,0.06 0.0375,0.1375 0.01,0.075 0.01,0.1725 0,0.1125 -0.0225,0.21 -0.0225,0.095 -0.0725,0.1625 -0.0525,0.07 -0.1375,0.11 -0.085,0.04 -0.2075,0.04 -0.0925,0 -0.1725,-0.0325 -0.08,-0.0325 -0.1375,-0.09 -0.0575,-0.0575 -0.0925,-0.1325 -0.0325,-0.0775 -0.0325,-0.1675 v -0.095 h 0.255 v 0.08 q 0,0.07 0.04,0.1275 0.0425,0.055 0.14,0.055 0.065,0 0.1,-0.0175 0.0375,-0.02 0.0575,-0.055 0.02,-0.035 0.0225,-0.0825 0.005,-0.05 0.005,-0.11 0,-0.07 -0.005,-0.115 -0.005,-0.045 -0.02,-0.0725 -0.0175,-0.0275 -0.0475,-0.045 -0.0275,-0.0175 -0.075,-0.0375 l -0.1825,-0.075 q -0.165,-0.0675 -0.2225,-0.1775 -0.055,-0.1125 -0.055,-0.28 0,-0.1 0.0275,-0.19 0.0275,-0.09 0.0825,-0.155 0.0525,-0.065 0.1325,-0.1025 0.0825,-0.04 0.195,-0.04 0.095,0 0.1725,0.035 0.08,0.035 0.1375,0.0925 0.115,0.12 0.115,0.275 z"
     id="text8"
     transform="translate(0, 4.5)"
     style="font-weight:bold;font-size:2.5px;font-family:'DIN Condensed';text-anchor:middle;fill:#6060a0"
     aria-label="REPEATS" />
  <path
     d="m 65.123752,23.5 v -1.78 h 0.245 l 0.3275,0.9425 h 0.005 l 0.325,-0.9425 h 0.2475 v 1.78 h -0.255 v -1.0825 h -0.005 l -0.2525,0.765 h -0.1275 l -0.25,-0.765 h -0.005 V 23.5 Z m 1.3975,0 v -1.78 h 0.255 v 1.78 z m 0.377501,0 0.36,-0.9325 -0.3325,-0.8475 h 0.27 l 0.1925,0.5275 0.195,-0.5275 h 0.27 l -0.34,0.8475 0.3675,0.9325 h -0.27 l -0.2225,-0.6 -0.22,0.6 z"
     id="text9"
     transform="translate(0, 4.5)"
     style="font-weight:bold;font-size:2.5px;font-family:'DIN Condensed';text-anchor:middle;fill:#6060a0"
     aria-label="MIX" />
  <!-- Row 2 knob labels (knobs at y=60) -->
  <path
     d="m 23.037497,48 v -1.78 h 0.3725 q 0.1225,0 0.2075,0.0375 0.0875,0.0375 0.1425,0.1 0.055,0.0625 0.0775,0.145 0.025,0.08 0.025,0.1675 v 0.065 q 0,0.0725 -0.0125,0.1225 -0.01,0.05 -0.0325,0.0875 -0.0425,0.07 -0.13,0.12 0.09,0.0425 0.1325,0.125 0.0425,0.0825 0.0425,0.225 v 0.1 q 0,0.235 -0.115,0.36 -0.1125,0.125 -0.3625,0.125 z m 0.255,-0.825 v 0.57 h 0.11 q 0.0775,0 0.12,-0.0225 0.045,-0.0225 0.0675,-0.0625 0.0225,-0.04 0.0275,-0.095 0.005,-0.055 0.005,-0.12 0,-0.0675 -0.0075,-0.1175 -0.0075,-0.05 -0.03,-0.085 -0.025,-0.035 -0.0675,-0.05 -0.0425,-0.0175 -0.1125,-0.0175 z m 0,-0.715 v 0.49 h 0.115 q 0.1275,0 0.17,-0.0625 0.045,-0.065 0.045,-0.1875 0,-0.12 -0.05,-0.18 -0.0475,-0.06 -0.175,-0.06 z M 24.102499,48 v -1.78 h 0.76 v 0.24 h -0.505 v 0.5225 h 0.44 v 0.24 h -0.44 v 0.5225 h 0.505 V 48 Z m 0.915002,0 v -1.78 h 0.245 l 0.385,1.0725 h 0.005 V 46.22 h 0.255 V 48 h -0.24 l -0.39,-1.07 h -0.005 V 48 Z m 1.12,0 v -1.78 h 0.3775 q 0.22,0 0.3325,0.12 0.115,0.12 0.115,0.34 v 0.8325 q 0,0.25 -0.1225,0.37 -0.12,0.1175 -0.3475,0.1175 z m 0.255,-1.54 v 1.3 h 0.1175 q 0.1075,0 0.1525,-0.0525 0.045,-0.055 0.045,-0.17 V 46.68 q 0,-0.105 -0.0425,-0.1625 -0.0425,-0.0575 -0.155,-0.0575 z"
     id="text10"
     transform="translate(0, 7.5)"
     style="font-weight:bold;font-size:2.5px;font-family:'DIN Condensed';text-anchor:middle;fill:#6060a0"
     aria-label="BEND" />
  <path
     d="m 43.271248,48 v -1.78 h 0.3725 q 0.1225,0 0.2075,0.0375 0.0875,0.0375 0.1425,0.1 0.055,0.0625 0.0775,0.145 0.025,0.08 0.025,0.1675 v 0.065 q 0,0.0725 -0.0125,0.1225 -0.01,0.05 -0.0325,0.0875 -0.0425,0.07 -0.13,0.12 0.09,0.0425 0.1325,0.125 0.0425,0.0825 0.0425,0.225 v 0.1 q 0,0.235 -0.115,0.36 -0.1125,0.125 -0.3625,0.125 z m 0.255,-0.825 v 0.57 h 0.11 q 0.0775,0 0.12,-0.0225 0.045,-0.0225 0.0675,-0.0625 0.0225,-0.04 0.0275,-0.095 0.005,-0.055 0.005,-0.12 0,-0.0675 -0.0075,-0.1175 -0.0075,-0.05 -0.03,-0.085 -0.025,-0.035 -0.0675,-0.05 -0.0425,-0.0175 -0.1125,-0.0175 z m 0,-0.715 v 0.49 h 0.115 q 0.1275,0 0.17,-0.0625 0.045,-0.065 0.045,-0.1875 0,-0.12 -0.05,-0.18 -0.0475,-0.06 -0.175,-0.06 z m 1.065002,0 v 0.555 h 0.145 q 0.0675,0 0.1075,-0.0175 0.04,-0.02 0.0625,-0.055 0.02,-0.035 0.0275,-0.085 0.0075,-0.0525 0.0075,-0.12 0,-0.0675 -0.0075,-0.1175 -0.0075,-0.0525 -0.03,-0.09 -0.0475,-0.07 -0.18,-0.07 z m -0.255,1.54 v -1.78 h 0.41 q 0.45,0 0.45,0.5225 0,0.1575 -0.05,0.2675 -0.0475,0.11 -0.17,0.1775 L 45.25125,48 h -0.27 l -0.2375,-0.76 h -0.1525 V 48 Z m 1.065001,0 v -1.78 h 0.76 v 0.24 h -0.505 v 0.5225 h 0.44 v 0.24 h -0.44 v 0.5225 h 0.505 V 48 Z m 1.440003,-0.6225 -0.125,-0.645 h -0.005 l -0.125,0.645 z m -0.63,0.6225 0.3975,-1.78 h 0.2125 l 0.3975,1.78 h -0.255 l -0.075,-0.3825 h -0.3475 L 46.466254,48 Z m 1.132498,0 v -1.78 h 0.255 v 0.8125 h 0.005 l 0.3725,-0.8125 h 0.255 l -0.3475,0.7125 0.4125,1.0675 h -0.27 l -0.29,-0.79 -0.1375,0.2575 V 48 Z"
     id="text11"
     transform="translate(0, 7.5)"
     style="font-weight:bold;font-size:2.5px;font-family:'DIN Condensed';text-anchor:middle;fill:#6060a0"
     aria-label="BREAK" />
  <path
     d="m 63.8075,47.4925 v 0.11 q 0,0.0825 -0.0325,0.1575 -0.03,0.0725 -0.085,0.13 -0.055,0.0575 -0.13,0.0925 -0.0725,0.0325 -0.1575,0.0325 -0.0725,0 -0.1475,-0.02 -0.075,-0.02 -0.135,-0.07 -0.06,-0.05 -0.1,-0.1275 -0.0375,-0.08 -0.0375,-0.2025 v -0.98 q 0,-0.0875 0.03,-0.1625 0.03,-0.075 0.085,-0.13 0.055,-0.055 0.13,-0.085 0.0775,-0.0325 0.17,-0.0325 0.18,0 0.2925,0.1175 0.055,0.0575 0.085,0.1375 0.0325,0.0775 0.0325,0.17 v 0.1 h -0.255 v -0.085 q 0,-0.075 -0.0425,-0.13 -0.0425,-0.055 -0.115,-0.055 -0.095,0 -0.1275,0.06 -0.03,0.0575 -0.03,0.1475 v 0.91 q 0,0.0775 0.0325,0.13 0.035,0.0525 0.1225,0.0525 0.025,0 0.0525,-0.0075 0.03,-0.01 0.055,-0.03 0.0225,-0.02 0.0375,-0.055 0.015,-0.035 0.015,-0.0875 V 47.4925 Z M 63.999999,46.64 q 0,-0.1075 0.0375,-0.19 0.0375,-0.0825 0.1,-0.1375 0.06,-0.0525 0.135,-0.08 0.0775,-0.0275 0.155,-0.0275 0.0775,0 0.1525,0.0275 0.0775,0.0275 0.14,0.08 0.06,0.055 0.0975,0.1375 0.0375,0.0825 0.0375,0.19 v 0.94 q 0,0.1125 -0.0375,0.1925 -0.0375,0.08 -0.0975,0.1325 -0.0625,0.055 -0.14,0.0825 -0.075,0.0275 -0.1525,0.0275 -0.0775,0 -0.155,-0.0275 -0.075,-0.0275 -0.135,-0.0825 -0.0625,-0.0525 -0.1,-0.1325 -0.0375,-0.08 -0.0375,-0.1925 z m 0.255,0.94 q 0,0.0925 0.05,0.1375 0.0525,0.0425 0.1225,0.0425 0.07,0 0.12,-0.0425 0.0525,-0.045 0.0525,-0.1375 v -0.94 q 0,-0.0925 -0.0525,-0.135 -0.05,-0.045 -0.12,-0.045 -0.07,0 -0.1225,0.045 -0.05,0.0425 -0.05,0.135 z M 65.335,46.46 v 0.555 h 0.145 q 0.0675,0 0.1075,-0.0175 0.04,-0.02 0.0625,-0.055 0.02,-0.035 0.0275,-0.085 0.0075,-0.0525 0.0075,-0.12 0,-0.0675 -0.0075,-0.1175 -0.0075,-0.0525 -0.03,-0.09 -0.0475,-0.07 -0.18,-0.07 z M 65.08,48 v -1.78 h 0.41 q 0.45,0 0.45,0.5225 0,0.1575 -0.05,0.2675 -0.0475,0.11 -0.17,0.1775 L 65.995,48 h -0.27 L 65.4875,47.24 H 65.335 V 48 Z m 1.320002,-1.54 v 0.555 h 0.145 q 0.0675,0 0.1075,-0.0175 0.04,-0.02 0.0625,-0.055 0.02,-0.035 0.0275,-0.085 0.0075,-0.0525 0.0075,-0.12 0,-0.0675 -0.0075,-0.1175 -0.0075,-0.0525 -0.03,-0.09 -0.0475,-0.07 -0.18,-0.07 z m -0.255,1.54 v -1.78 h 0.41 q 0.45,0 0.45,0.5225 0,0.1575 -0.05,0.2675 -0.0475,0.11 -0.17,0.1775 l 0.275,0.8125 h -0.27 l -0.2375,-0.76 h -0.1525 V 48 Z m 1.890001,-1.78 v 1.38 q 0,0.0875 -0.0325,0.1625 -0.03,0.0725 -0.0875,0.13 -0.0575,0.0575 -0.1325,0.09 -0.075,0.0325 -0.16,0.0325 -0.085,0 -0.16,-0.0325 -0.0725,-0.0325 -0.13,-0.09 -0.0575,-0.0575 -0.09,-0.13 -0.0325,-0.075 -0.0325,-0.1625 v -1.38 h 0.255 v 1.355 q 0,0.095 0.045,0.14 0.045,0.045 0.1125,0.045 0.0675,0 0.1125,-0.045 0.045,-0.045 0.045,-0.14 V 46.22 Z M 68.275005,48 v -1.78 h 0.3825 q 0.105,0 0.185,0.0275 0.08,0.0275 0.145,0.0975 0.065,0.07 0.09,0.165 0.025,0.0925 0.025,0.2525 0,0.12 -0.015,0.2025 -0.0125,0.0825 -0.0575,0.155 -0.0525,0.0875 -0.14,0.1375 -0.0875,0.0475 -0.23,0.0475 h -0.13 V 48 Z m 0.255,-1.54 v 0.605 h 0.1225 q 0.0775,0 0.12,-0.0225 0.0425,-0.0225 0.0625,-0.0625 0.02,-0.0375 0.0225,-0.0925 0.005,-0.055 0.005,-0.1225 0,-0.0625 -0.0025,-0.1175 -0.0025,-0.0575 -0.0225,-0.1 -0.02,-0.0425 -0.06,-0.065 -0.04,-0.0225 -0.115,-0.0225 z M 69.460003,48 v -1.54 h -0.295 v -0.24 h 0.845 v 0.24 h -0.295 V 48 Z"
     id="text12"
     transform="translate(0, 7.5)"
     style="font-weight:bold;font-size:2.5px;font-family:'DIN Condensed';text-anchor:middle;fill:#6060a0"
     aria-label="CORRUPT" />
  <!-- Separator before display -->
  <line
     x1="8"
     y1="80"
     x2="83.44"
     y2="80"
     stroke="#252550"
     stroke-width="0.15"
     id="line12" />
  <!-- Display cutout (origin 7,82, height 13) -->
  <rect
     x="7"
     y="82"
     rx="1"
     ry="1"
     width="77.44"
     height="13"
     fill="#050e15"
     stroke="#252550"
     stroke-width="0.3"
     id="rect12" />
  <!-- Separator before bottom settings -->
  <line
     x1="8"
     y1="113"
     x2="83.44"
     y2="113"
     stroke="#252550"
     stroke-width="0.15"
     id="line16" />
  <!-- Bottom labels (above controls at y=117, path data ~y=107-108 + translate 7) -->
  <path
     d="m 9.064999,107.412 q 0,-0.086 0.03,-0.152 0.03,-0.066 0.08,-0.11 0.048,-0.042 0.108,-0.064 0.062,-0.022 0.124,-0.022 0.062,0 0.122,0.022 0.062,0.022 0.112,0.064 0.048,0.044 0.078,0.11 0.03,0.066 0.03,0.152 v 0.072 h -0.204 v -0.072 q 0,-0.074 -0.042,-0.108 -0.04,-0.036 -0.096,-0.036 -0.056,0 -0.098,0.036 -0.04,0.034 -0.04,0.108 v 0.752 q 0,0.074 0.04,0.11 0.042,0.034 0.098,0.034 0.056,0 0.096,-0.034 0.042,-0.036 0.042,-0.11 v -0.268 h -0.162 v -0.18 h 0.366 v 0.448 q 0,0.09 -0.03,0.154 -0.03,0.064 -0.078,0.106 -0.05,0.044 -0.112,0.066 -0.06,0.022 -0.122,0.022 -0.062,0 -0.124,-0.022 -0.06,-0.022 -0.108,-0.066 -0.05,-0.042 -0.08,-0.106 -0.03,-0.064 -0.03,-0.154 z M 10.987,107.076 10.775,108.5 h -0.192 l -0.156,-0.924 H 10.423 L 10.269,108.5 H 10.077 L 9.8650002,107.076 H 10.081 l 0.102,0.904 h 0.004 l 0.16,-0.904 h 0.156 l 0.166,0.926 h 0.004 l 0.098,-0.926 z"
     id="text17"
     transform="translate(0, 7)"
     style="font-weight:bold;font-size:2px;font-family:'DIN Condensed';text-anchor:middle;fill:#505090"
     aria-label="GW" />
  <path
     d="m 20.706997,108.094 v 0.088 q 0,0.066 -0.026,0.126 -0.024,0.058 -0.068,0.104 -0.044,0.046 -0.104,0.074 -0.058,0.026 -0.126,0.026 -0.058,0 -0.118,-0.016 -0.06,-0.016 -0.108,-0.056 -0.048,-0.04 -0.08,-0.102 -0.03,-0.064 -0.03,-0.162 v -0.784 q 0,-0.07 0.024,-0.13 0.024,-0.06 0.068,-0.104 0.044,-0.044 0.104,-0.068 0.062,-0.026 0.136,-0.026 0.144,0 0.234,0.094 0.044,0.046 0.068,0.11 0.026,0.062 0.026,0.136 v 0.08 h -0.204 v -0.068 q 0,-0.06 -0.034,-0.104 -0.034,-0.044 -0.092,-0.044 -0.076,0 -0.102,0.048 -0.024,0.046 -0.024,0.118 v 0.728 q 0,0.062 0.026,0.104 0.028,0.042 0.098,0.042 0.02,0 0.042,-0.006 0.024,-0.008 0.044,-0.024 0.018,-0.016 0.03,-0.044 0.012,-0.028 0.012,-0.07 v -0.07 z m 0.166,0.406 v -1.424 h 0.204 v 1.22 h 0.404 v 0.204 z m 0.740001,0 v -1.424 h 0.204 v 0.65 h 0.004 l 0.298,-0.65 h 0.204 l -0.278,0.57 0.33,0.854 h -0.216 l -0.232,-0.632 -0.11,0.206 v 0.426 z m 1.230003,0 v -1.424 h 0.204 v 1.424 z m 0.394001,0 v -1.424 h 0.196 l 0.308,0.858 h 0.004 v -0.858 h 0.204 v 1.424 h -0.192 l -0.312,-0.856 h -0.004 v 0.856 z"
     id="text18"
     transform="translate(0, 7)"
     style="font-weight:bold;font-size:2px;font-family:'DIN Condensed';text-anchor:middle;fill:#505090"
     aria-label="CLK IN" />
  <path
     d="m 33.966198,108.5 v -1.2816 h 0.1764 l 0.2358,0.6786 h 0.0036 l 0.234,-0.6786 h 0.1782 V 108.5 h -0.1836 v -0.7794 h -0.0036 l -0.1818,0.5508 h -0.0918 l -0.18,-0.5508 h -0.0036 V 108.5 Z m 0.99,-0.9792 q 0,-0.0774 0.027,-0.1368 0.027,-0.0594 0.072,-0.099 0.0432,-0.0378 0.0972,-0.0576 0.0558,-0.0198 0.1116,-0.0198 0.0558,0 0.1098,0.0198 0.0558,0.0198 0.100799,0.0576 0.0432,0.0396 0.0702,0.099 0.027,0.0594 0.027,0.1368 v 0.6768 q 0,0.081 -0.027,0.1386 -0.027,0.0576 -0.0702,0.0954 -0.045,0.0396 -0.100799,0.0594 -0.054,0.0198 -0.1098,0.0198 -0.0558,0 -0.1116,-0.0198 -0.054,-0.0198 -0.0972,-0.0594 -0.045,-0.0378 -0.072,-0.0954 -0.027,-0.0576 -0.027,-0.1386 z m 0.1836,0.6768 q 0,0.0666 0.036,0.099 0.0378,0.0306 0.0882,0.0306 0.0504,0 0.0864,-0.0306 0.0378,-0.0324 0.0378,-0.099 v -0.6768 q 0,-0.0666 -0.0378,-0.0972 -0.036,-0.0324 -0.0864,-0.0324 -0.0504,0 -0.0882,0.0324 -0.036,0.0306 -0.036,0.0972 z m 0.594001,0.3024 v -1.2816 h 0.2718 q 0.1584,0 0.239399,0.0864 0.0828,0.0864 0.0828,0.2448 v 0.5994 q 0,0.18 -0.0882,0.2664 -0.0864,0.0846 -0.250199,0.0846 z m 0.1836,-1.1088 v 0.936 h 0.0846 q 0.0774,0 0.1098,-0.0378 0.0324,-0.0396 0.0324,-0.1224 v -0.6174 q 0,-0.0756 -0.0306,-0.117 -0.0306,-0.0414 -0.1116,-0.0414 z M 36.5006,108.5 v -1.2816 h 0.5472 v 0.1728 h -0.3636 v 0.3762 h 0.3168 v 0.1728 h -0.3168 v 0.3762 h 0.3636 V 108.5 Z"
     id="text19"
     transform="translate(0, 7)"
     style="font-weight:bold;font-size:1.8px;font-family:'DIN Condensed';text-anchor:middle;fill:#404080"
     aria-label="MODE" />
  <path
     d="m 52.896198,108.5 v -1.2816 h 0.268199 q 0.0882,0 0.1494,0.027 0.063,0.027 0.1026,0.072 0.0396,0.045 0.0558,0.1044 0.018,0.0576 0.018,0.1206 v 0.0468 q 0,0.0522 -0.009,0.0882 -0.0072,0.036 -0.0234,0.063 -0.0306,0.0504 -0.0936,0.0864 0.0648,0.0306 0.0954,0.09 0.0306,0.0594 0.0306,0.162 v 0.072 q 0,0.1692 -0.0828,0.2592 -0.081,0.09 -0.261,0.09 z m 0.1836,-0.594 v 0.4104 h 0.0792 q 0.0558,0 0.0864,-0.0162 0.0324,-0.0162 0.0486,-0.045 0.0162,-0.0288 0.0198,-0.0684 0.0036,-0.0396 0.0036,-0.0864 0,-0.0486 -0.0054,-0.0846 -0.0054,-0.036 -0.0216,-0.0612 -0.018,-0.0252 -0.0486,-0.036 -0.0306,-0.0126 -0.081,-0.0126 z m 0,-0.5148 v 0.3528 h 0.0828 q 0.0918,0 0.1224,-0.045 0.0324,-0.0468 0.0324,-0.135 0,-0.0864 -0.036,-0.1296 -0.0342,-0.0432 -0.126,-0.0432 z m 0.766801,0 v 0.3996 h 0.1044 q 0.0486,0 0.0774,-0.0126 0.0288,-0.0144 0.045,-0.0396 0.0144,-0.0252 0.0198,-0.0612 0.0054,-0.0378 0.0054,-0.0864 0,-0.0486 -0.0054,-0.0846 -0.0054,-0.0378 -0.0216,-0.0648 -0.0342,-0.0504 -0.1296,-0.0504 z m -0.1836,1.1088 v -1.2816 h 0.2952 q 0.324,0 0.324,0.3762 0,0.1134 -0.036,0.1926 -0.0342,0.0792 -0.1224,0.1278 l 0.198,0.585 h -0.1944 l -0.171,-0.5472 h -0.1098 V 108.5 Z m 0.766801,0 v -1.2816 h 0.1836 v 0.585 h 0.0036 l 0.2682,-0.585 h 0.1836 l -0.2502,0.513 0.297,0.7686 h -0.1944 l -0.2088,-0.5688 -0.099,0.1854 V 108.5 Z"
     id="text20"
     transform="translate(0, 7)"
     style="font-weight:bold;font-size:1.8px;font-family:'DIN Condensed';text-anchor:middle;fill:#404080"
     aria-label="SLNC" />
  <path
     d="m 71.7398,107.5874 h -0.1836 v -0.0414 q 0,-0.063 -0.0306,-0.108 -0.0288,-0.0468 -0.099,-0.0468 -0.0378,0 -0.0612,0.0144 -0.0234,0.0144 -0.0378,0.036 -0.0144,0.0234 -0.0198,0.054 -0.0054,0.0288 -0.0054,0.0612 0,0.0378 0.0018,0.063 0.0036,0.0252 0.0144,0.045 0.0108,0.0198 0.0306,0.0342 0.0216,0.0144 0.0576,0.0288 l 0.1404,0.0558 q 0.0612,0.0234 0.099,0.0558 0.0378,0.0306 0.0594,0.072 0.0198,0.0432 0.027,0.099 0.0072,0.054 0.0072,0.1242 0,0.081 -0.0162,0.1512 -0.0162,0.0684 -0.0522,0.117 -0.0378,0.0504 -0.099,0.0792 -0.0612,0.0288 -0.1494,0.0288 -0.0666,0 -0.1242,-0.0234 -0.0576,-0.0234 -0.099,-0.0648 -0.0414,-0.0414 -0.0666,-0.0954 -0.0234,-0.0558 -0.0234,-0.1206 v -0.0684 h 0.1836 v 0.0576 q 0,0.0504 0.0288,0.0918 0.0306,0.0396 0.1008,0.0396 0.0468,0 0.072,-0.0126 0.027,-0.0144 0.0414,-0.0396 0.0144,-0.0252 0.0162,-0.0594 0.0036,-0.036 0.0036,-0.0792 0,-0.0504 -0.0036,-0.0828 -0.0036,-0.0324 -0.0144,-0.0522 -0.0126,-0.0198 -0.0342,-0.0324 -0.0198,-0.0126 -0.054,-0.027 l -0.1314,-0.054 q -0.1188,-0.0486 -0.1602,-0.1278 -0.0396,-0.081 -0.0396,-0.2016 0,-0.072 0.0198,-0.1368 0.0198,-0.0648 0.0594,-0.1116 0.0378,-0.0468 0.0954,-0.0738 0.0594,-0.0288 0.1404,-0.0288 0.0684,0 0.1242,0.0252 0.0576,0.0252 0.099,0.0666 0.0828,0.0864 0.0828,0.198 z m 0.257401,0.9126 v -1.1088 h -0.2124 v -0.1728 h 0.6084 v 0.1728 h -0.2124 V 108.5 Z m 0.477001,0 v -1.2816 h 0.5472 v 0.1728 h -0.3636 v 0.3762 h 0.3168 v 0.1728 h -0.3168 v 0.3762 h 0.3636 V 108.5 Z m 0.849601,-1.1088 v 0.3996 h 0.1044 q 0.0486,0 0.0774,-0.0126 0.0288,-0.0144 0.045,-0.0396 0.0144,-0.0252 0.0198,-0.0612 0.0054,-0.0378 0.0054,-0.0864 0,-0.0486 -0.0054,-0.0846 -0.0054,-0.0378 -0.0216,-0.0648 -0.0342,-0.0504 -0.1296,-0.0504 z m -0.1836,1.1088 v -1.2816 h 0.2952 q 0.324,0 0.324,0.3762 0,0.1134 -0.036,0.1926 -0.0342,0.0792 -0.1224,0.1278 l 0.198,0.585 h -0.1944 l -0.171,-0.5472 h -0.1098 V 108.5 Z"
     id="text21"
     transform="translate(0, 7)"
     style="font-weight:bold;font-size:1.8px;font-family:'DIN Condensed';text-anchor:middle;fill:#404080"
     aria-label="STER" />
  <!-- Brand -->
  <path
     d="m 35.516996,123 v -1.424 h 0.196 l 0.308,0.858 h 0.004 v -0.858 h 0.204 V 123 h -0.192 l -0.312,-0.856 h -0.004 V 123 Z m 1.684,-1.088 q 0,-0.086 0.03,-0.152 0.03,-0.066 0.08,-0.11 0.048,-0.042 0.108,-0.064 0.062,-0.022 0.124,-0.022 0.062,0 0.122,0.022 0.062,0.022 0.112,0.064 0.048,0.044 0.078,0.11 0.03,0.066 0.03,0.152 v 0.752 q 0,0.09 -0.03,0.154 -0.03,0.064 -0.078,0.106 -0.05,0.044 -0.112,0.066 -0.06,0.022 -0.122,0.022 -0.062,0 -0.124,-0.022 -0.06,-0.022 -0.108,-0.066 -0.05,-0.042 -0.08,-0.106 -0.03,-0.064 -0.03,-0.154 z m 0.204,0.752 q 0,0.074 0.04,0.11 0.042,0.034 0.098,0.034 0.056,0 0.096,-0.034 0.042,-0.036 0.042,-0.11 v -0.752 q 0,-0.074 -0.042,-0.108 -0.04,-0.036 -0.096,-0.036 -0.056,0 -0.098,0.036 -0.04,0.034 -0.04,0.108 z m 3.292003,-0.678 h -0.204 v -0.046 q 0,-0.07 -0.034,-0.12 -0.032,-0.052 -0.11,-0.052 -0.042,0 -0.068,0.016 -0.026,0.016 -0.042,0.04 -0.016,0.026 -0.022,0.06 -0.006,0.032 -0.006,0.068 0,0.042 0.002,0.07 0.004,0.028 0.016,0.05 0.012,0.022 0.034,0.038 0.024,0.016 0.064,0.032 l 0.156,0.062 q 0.068,0.026 0.11,0.062 0.042,0.034 0.066,0.08 0.022,0.048 0.03,0.11 0.008,0.06 0.008,0.138 0,0.09 -0.018,0.168 -0.018,0.076 -0.058,0.13 -0.042,0.056 -0.11,0.088 -0.068,0.032 -0.166,0.032 -0.074,0 -0.138,-0.026 -0.064,-0.026 -0.11,-0.072 -0.046,-0.046 -0.074,-0.106 -0.026,-0.062 -0.026,-0.134 v -0.076 h 0.204 v 0.064 q 0,0.056 0.032,0.102 0.034,0.044 0.112,0.044 0.052,0 0.08,-0.014 0.03,-0.016 0.046,-0.044 0.016,-0.028 0.018,-0.066 0.004,-0.04 0.004,-0.088 0,-0.056 -0.004,-0.092 -0.004,-0.036 -0.016,-0.058 -0.014,-0.022 -0.038,-0.036 -0.022,-0.014 -0.06,-0.03 l -0.146,-0.06 q -0.132,-0.054 -0.178,-0.142 -0.044,-0.09 -0.044,-0.224 0,-0.08 0.022,-0.152 0.022,-0.072 0.066,-0.124 0.042,-0.052 0.106,-0.082 0.066,-0.032 0.156,-0.032 0.076,0 0.138,0.028 0.064,0.028 0.11,0.074 0.092,0.096 0.092,0.22 z m 1.612,-0.41 v 1.104 q 0,0.07 -0.026,0.13 -0.024,0.058 -0.07,0.104 -0.046,0.046 -0.106,0.072 -0.06,0.026 -0.128,0.026 -0.068,0 -0.128,-0.026 -0.058,-0.026 -0.104,-0.072 -0.046,-0.046 -0.072,-0.104 -0.026,-0.06 -0.026,-0.13 v -1.104 h 0.204 v 1.084 q 0,0.076 0.036,0.112 0.036,0.036 0.09,0.036 0.054,0 0.09,-0.036 0.036,-0.036 0.036,-0.112 v -1.084 z m 1.640002,1.018 v 0.088 q 0,0.066 -0.026,0.126 -0.024,0.058 -0.068,0.104 -0.044,0.046 -0.104,0.074 -0.058,0.026 -0.126,0.026 -0.058,0 -0.118,-0.016 -0.06,-0.016 -0.108,-0.056 -0.048,-0.04 -0.08,-0.102 -0.03,-0.064 -0.03,-0.162 v -0.784 q 0,-0.07 0.024,-0.13 0.024,-0.06 0.068,-0.104 0.044,-0.044 0.104,-0.068 0.062,-0.026 0.136,-0.026 0.144,0 0.234,0.094 0.044,0.046 0.068,0.11 0.026,0.062 0.026,0.136 v 0.08 h -0.204 v -0.068 q 0,-0.06 -0.034,-0.104 -0.034,-0.044 -0.092,-0.044 -0.076,0 -0.102,0.048 -0.024,0.046 -0.024,0.118 v 0.728 q 0,0.062 0.026,0.104 0.028,0.042 0.098,0.042 0.02,0 0.042,-0.006 0.024,-0.008 0.044,-0.024 0.018,-0.016 0.03,-0.044 0.012,-0.028 0.012,-0.07 v -0.07 z M 44.915,123 v -1.424 h 0.204 v 0.61 h 0.252 v -0.61 h 0.204 V 123 h -0.204 v -0.634 H 45.119 V 123 Z m 2.824002,0 v -1.424 h 0.302 q 0.176,0 0.266,0.096 0.092,0.096 0.092,0.272 v 0.666 q 0,0.2 -0.098,0.296 -0.096,0.094 -0.278,0.094 z m 0.204,-1.232 v 1.04 h 0.094 q 0.086,0 0.122,-0.042 0.036,-0.044 0.036,-0.136 v -0.686 q 0,-0.084 -0.034,-0.13 -0.034,-0.046 -0.124,-0.046 z M 49.391004,123 v -1.424 h 0.608 v 0.192 h -0.404 v 0.418 h 0.352 v 0.192 h -0.352 v 0.418 h 0.404 V 123 Z m 2.232001,-1.424 -0.292,1.424 h -0.18 l -0.29,-1.424 h 0.216 l 0.162,0.994 h 0.004 l 0.164,-0.994 z M 52.551004,123 v -1.424 h 0.204 V 123 Z m 1.850002,-0.406 v 0.088 q 0,0.066 -0.026,0.126 -0.024,0.058 -0.068,0.104 -0.044,0.046 -0.104,0.074 -0.058,0.026 -0.126,0.026 -0.058,0 -0.118,-0.016 -0.06,-0.016 -0.108,-0.056 -0.048,-0.04 -0.08,-0.102 -0.03,-0.064 -0.03,-0.162 v -0.784 q 0,-0.07 0.024,-0.13 0.024,-0.06 0.068,-0.104 0.044,-0.044 0.104,-0.068 0.062,-0.026 0.136,-0.026 0.144,0 0.234,0.094 0.044,0.046 0.068,0.11 0.026,0.062 0.026,0.136 v 0.08 h -0.204 v -0.068 q 0,-0.06 -0.034,-0.104 -0.034,-0.044 -0.092,-0.044 -0.076,0 -0.102,0.048 -0.024,0.046 -0.024,0.118 v 0.728 q 0,0.062 0.026,0.104 0.028,0.042 0.098,0.042 0.02,0 0.042,-0.006 0.024,-0.008 0.044,-0.024 0.018,-0.016 0.03,-0.044 0.012,-0.028 0.012,-0.07 v -0.07 z M 55.367004,123 v -1.424 h 0.608 v 0.192 h -0.404 v 0.418 h 0.352 v 0.192 h -0.352 v 0.418 h 0.404 V 123 Z"
     id="text22"
     transform="translate(0, 2)"
     style="font-weight:bold;font-size:2px;font-family:'DIN Condensed';letter-spacing:0.8;text-anchor:middle;fill:#353570"
     aria-label="NO SUCH DEVICE" />
</svg>
